<?xml version="1.0" encoding="utf-8"?><svg xmlns="http://www.w3.org/2000/svg" xmlns:xlink="http://www.w3.org/1999/xlink"><symbol id="arrow-left" viewBox="0 0 148.096 279.017" xmlns="http://www.w3.org/2000/svg"><style>.ast0{fill:#333}</style><path class="ast0" d="M2.523 145.572l130.926 130.926a8.56 8.56 0 0 0 12.128 0 8.549 8.549 0 0 0 0-12.119L20.711 139.504 145.577 14.638a8.549 8.549 0 0 0 0-12.119 8.56 8.56 0 0 0-12.128 0L2.523 133.445a8.545 8.545 0 0 0 0 12.127z"/></symbol><symbol id="arrow-right" viewBox="0 0 148.096 279.017" xmlns="http://www.w3.org/2000/svg"><style>.bst0{fill:#333}</style><path class="bst0" d="M148.096 139.504c0-2.191-.844-4.38-2.523-6.06L14.646 2.519a8.56 8.56 0 0 0-12.128 0 8.549 8.549 0 0 0 0 12.119l124.867 124.867L2.519 264.38a8.549 8.549 0 0 0 0 12.119 8.56 8.56 0 0 0 12.128 0l130.926-130.926a8.573 8.573 0 0 0 2.523-6.069z"/></symbol><symbol id="grid" viewBox="0 0 300 300" xmlns="http://www.w3.org/2000/svg"><style>.cst0{fill:#4c4c4c}</style><path class="cst0" d="M170.349 169.17H285.36v115.014H170.349zM16.995 15.816h115.011V130.83H16.995zm0 153.354h115.011v115.014H16.995zM170.349 15.816H285.36V130.83H170.349z"/></symbol></svg>